<svg width="376" height="24" viewBox="0 0 376 24" fill="none" xmlns="http://www.w3.org/2000/svg">
<path d="M15.7832 16.3911L20 20.6069L18.6069 22L14.3911 17.7832C12.8224 19.0407 10.8713 19.7246 8.86088 19.7218C3.96968 19.7218 0 15.7521 0 10.8609C0 5.96968 3.96968 2 8.86088 2C13.7521 2 17.7218 5.96968 17.7218 10.8609C17.7246 12.8713 17.0407 14.8224 15.7832 16.3911ZM13.8082 15.6605C15.0577 14.3756 15.7555 12.6532 15.7527 10.8609C15.7527 7.05267 12.6681 3.96909 8.86088 3.96909C5.05267 3.96909 1.96909 7.05267 1.96909 10.8609C1.96909 14.6681 5.05267 17.7527 8.86088 17.7527C10.6532 17.7555 12.3756 17.0577 13.6605 15.8082L13.8082 15.6605Z" fill="#575757"/>
</svg>
